<svg width="267" height="215" viewBox="0 0 267 215" fill="none" xmlns="http://www.w3.org/2000/svg">
<path d="M144.466 4.27637C180.111 4.27637 209.008 33.4372 209.008 69.4087H144.466V4.27637Z" fill="#A6CC45"/>
<path d="M7.78943 130.709C3.59584 130.709 0.196289 127.279 0.196289 123.047L0.196293 92.3965C0.196294 88.1644 3.59585 84.7339 7.78943 84.7339H212.804V123.047C212.804 127.279 209.404 130.709 205.21 130.709H7.78943Z" fill="#A6CC45"/>
<path d="M83.7218 8.10795C83.7218 3.87601 87.1216 0.445312 91.315 0.445312H129.281V207.337C129.281 211.569 125.881 215 121.688 215H91.315C87.1216 215 83.7218 211.569 83.7218 207.337V8.10795Z" fill="#A6CC45"/>
</svg>
